<mxfile host="app.diagrams.net" modified="2023-05-26T04:53:00.791Z" agent="Mozilla/5.0 (Windows NT 10.0; Win64; x64) AppleWebKit/537.36 (KHTML, like Gecko) Chrome/113.0.0.0 Safari/537.36" etag="7a6jhDCzS4uD5zt92Foh" version="21.3.2" type="device">
  <diagram name="페이지-1" id="yvM6zjEeF5u2iYA1ccTL">
    <mxGraphModel dx="1434" dy="731" grid="1" gridSize="10" guides="1" tooltips="1" connect="1" arrows="1" fold="1" page="1" pageScale="1" pageWidth="4681" pageHeight="3300" math="0" shadow="0">
      <root>
        <mxCell id="0" />
        <mxCell id="1" parent="0" />
        <mxCell id="tEJfP8KxcEP63l7Ypj5a-1" style="rounded=0;orthogonalLoop=1;jettySize=auto;html=1;entryX=0.5;entryY=0;entryDx=0;entryDy=0;exitX=0.5;exitY=1;exitDx=0;exitDy=0;" edge="1" parent="1" source="tEJfP8KxcEP63l7Ypj5a-3" target="tEJfP8KxcEP63l7Ypj5a-4">
          <mxGeometry relative="1" as="geometry" />
        </mxCell>
        <mxCell id="tEJfP8KxcEP63l7Ypj5a-2" style="edgeStyle=none;shape=connector;rounded=0;orthogonalLoop=1;jettySize=auto;html=1;entryX=0.5;entryY=0;entryDx=0;entryDy=0;labelBackgroundColor=default;strokeColor=default;fontFamily=Helvetica;fontSize=11;fontColor=default;endArrow=classic;exitX=0.5;exitY=1;exitDx=0;exitDy=0;" edge="1" parent="1" source="tEJfP8KxcEP63l7Ypj5a-3" target="tEJfP8KxcEP63l7Ypj5a-8">
          <mxGeometry relative="1" as="geometry" />
        </mxCell>
        <mxCell id="tEJfP8KxcEP63l7Ypj5a-3" value="메모장" style="whiteSpace=wrap;html=1;align=center;" vertex="1" parent="1">
          <mxGeometry x="625" y="158" width="100" height="40" as="geometry" />
        </mxCell>
        <mxCell id="tEJfP8KxcEP63l7Ypj5a-4" value="일련번호" style="ellipse;whiteSpace=wrap;html=1;align=center;fontStyle=4;" vertex="1" parent="1">
          <mxGeometry x="385" y="308" width="100" height="40" as="geometry" />
        </mxCell>
        <mxCell id="tEJfP8KxcEP63l7Ypj5a-5" value="작성자" style="ellipse;whiteSpace=wrap;html=1;align=center;" vertex="1" parent="1">
          <mxGeometry x="505" y="308" width="100" height="40" as="geometry" />
        </mxCell>
        <mxCell id="tEJfP8KxcEP63l7Ypj5a-6" value="작성일자" style="ellipse;whiteSpace=wrap;html=1;align=center;" vertex="1" parent="1">
          <mxGeometry x="625" y="308" width="100" height="40" as="geometry" />
        </mxCell>
        <mxCell id="tEJfP8KxcEP63l7Ypj5a-7" value="제목" style="ellipse;whiteSpace=wrap;html=1;align=center;" vertex="1" parent="1">
          <mxGeometry x="745" y="308" width="100" height="40" as="geometry" />
        </mxCell>
        <mxCell id="tEJfP8KxcEP63l7Ypj5a-8" value="내용" style="ellipse;whiteSpace=wrap;html=1;align=center;" vertex="1" parent="1">
          <mxGeometry x="865" y="308" width="100" height="40" as="geometry" />
        </mxCell>
        <mxCell id="tEJfP8KxcEP63l7Ypj5a-9" style="rounded=0;orthogonalLoop=1;jettySize=auto;html=1;entryX=0.5;entryY=0;entryDx=0;entryDy=0;exitX=0.5;exitY=1;exitDx=0;exitDy=0;" edge="1" parent="1" source="tEJfP8KxcEP63l7Ypj5a-3" target="tEJfP8KxcEP63l7Ypj5a-5">
          <mxGeometry relative="1" as="geometry">
            <mxPoint x="645" y="218" as="sourcePoint" />
            <mxPoint x="445" y="318" as="targetPoint" />
          </mxGeometry>
        </mxCell>
        <mxCell id="tEJfP8KxcEP63l7Ypj5a-10" style="rounded=0;orthogonalLoop=1;jettySize=auto;html=1;entryX=0.5;entryY=0;entryDx=0;entryDy=0;exitX=0.5;exitY=1;exitDx=0;exitDy=0;" edge="1" parent="1" source="tEJfP8KxcEP63l7Ypj5a-3" target="tEJfP8KxcEP63l7Ypj5a-6">
          <mxGeometry relative="1" as="geometry">
            <mxPoint x="655" y="228" as="sourcePoint" />
            <mxPoint x="455" y="328" as="targetPoint" />
          </mxGeometry>
        </mxCell>
        <mxCell id="tEJfP8KxcEP63l7Ypj5a-11" style="rounded=0;orthogonalLoop=1;jettySize=auto;html=1;entryX=0.5;entryY=0;entryDx=0;entryDy=0;exitX=0.5;exitY=1;exitDx=0;exitDy=0;" edge="1" parent="1" source="tEJfP8KxcEP63l7Ypj5a-3" target="tEJfP8KxcEP63l7Ypj5a-7">
          <mxGeometry relative="1" as="geometry">
            <mxPoint x="665" y="238" as="sourcePoint" />
            <mxPoint x="465" y="338" as="targetPoint" />
          </mxGeometry>
        </mxCell>
      </root>
    </mxGraphModel>
  </diagram>
</mxfile>
